{
  "accessors": [
    {
      "bufferView": 2,
      "componentType": 5126,
      "count": 42093,
      "max": [
        15.773138999938965,
        4.000146865844727,
        12.762950897216797
      ],
      "min": [
        -15.773138999938965,
        -0.01793864369392395,
        -12.762950897216797
      ],
      "type": "VEC3"
    },
    {
      "bufferView": 2,
      "byteOffset": 505116,
      "componentType": 5126,
      "count": 42093,
      "max": [
        1.0,
        1.0,
        1.0
      ],
      "min": [
        -1.0,
        -1.0,
        -1.0
      ],
      "type": "VEC3"
    },
    {
      "bufferView": 3,
      "componentType": 5126,
      "count": 42093,
      "max": [
        1.0,
        1.0,
        1.0,
        1.0
      ],
      "min": [
        -1.0,
        -1.0,
        -1.0,
        -1.0
      ],
      "type": "VEC4"
    },
    {
      "bufferView": 1,
      "componentType": 5126,
      "count": 42093,
      "max": [
        0.9981194734573364,
        0.9973738789558411
      ],
      "min": [
        0.0017440039664506912,
        0.0017416588962078094
      ],
      "type": "VEC2"
    },
    {
      "bufferView": 0,
      "componentType": 5125,
      "count": 187299,
      "type": "SCALAR"
    },
    {
      "bufferView": 2,
      "byteOffset": 1010232,
      "componentType": 5126,
      "count": 3939,
      "max": [
        15.752701759338379,
        28.19277572631836,
        -10.852487564086914
      ],
      "min": [
        -15.753037452697754,
        2.7177720069885254,
        -12.624588012695313
      ],
      "type": "VEC3"
    },
    {
      "bufferView": 2,
      "byteOffset": 1057500,
      "componentType": 5126,
      "count": 3939,
      "max": [
        1.0,
        1.0,
        1.0
      ],
      "min": [
        -1.0,
        -1.0,
        -1.0
      ],
      "type": "VEC3"
    },
    {
      "bufferView": 3,
      "byteOffset": 673488,
      "componentType": 5126,
      "count": 3939,
      "max": [
        1.0,
        1.0,
        1.0,
        1.0
      ],
      "min": [
        -0.9999979734420776,
        -1.0,
        -1.0,
        -1.0
      ],
      "type": "VEC4"
    },
    {
      "bufferView": 1,
      "byteOffset": 336744,
      "componentType": 5126,
      "count": 3939,
      "max": [
        0.7648981809616089,
        0.6770150065422058
      ],
      "min": [
        0.30139851570129395,
        0.0020443578250706196
      ],
      "type": "VEC2"
    },
    {
      "bufferView": 0,
      "byteOffset": 749196,
      "componentType": 5125,
      "count": 17079,
      "type": "SCALAR"
    },
    {
      "bufferView": 2,
      "byteOffset": 1104768,
      "componentType": 5126,
      "count": 4,
      "max": [
        15.05802059173584,
        27.205402374267578,
        -12.16290283203125
      ],
      "min": [
        -15.058354377746582,
        5.236536979675293,
        -12.16290283203125
      ],
      "type": "VEC3"
    },
    {
      "bufferView": 2,
      "byteOffset": 1104816,
      "componentType": 5126,
      "count": 4,
      "max": [
        0.0,
        0.0,
        1.0
      ],
      "min": [
        0.0,
        0.0,
        1.0
      ],
      "type": "VEC3"
    },
    {
      "bufferView": 1,
      "byteOffset": 368256,
      "componentType": 5126,
      "count": 4,
      "max": [
        1.0,
        0.7295213341712952
      ],
      "min": [
        0.0,
        0.0
      ],
      "type": "VEC2"
    },
    {
      "bufferView": 0,
      "byteOffset": 817512,
      "componentType": 5125,
      "count": 6,
      "type": "SCALAR"
    }
  ],
  "asset": {
    "extras": {
      "author": "brian-aa (https://sketchfab.com/brian-aa)",
      "license": "CC-BY-4.0 (http://creativecommons.org/licenses/by/4.0/)",
      "source": "https://sketchfab.com/3d-models/laptop-semi-detailed-70b963af167343cd9194ba77d3765e39",
      "title": "laptop semi detailed."
    },
    "generator": "Sketchfab-16.15.0",
    "version": "2.0"
  },
  "bufferViews": [
    {
      "buffer": 0,
      "byteLength": 817536,
      "name": "floatBufferViews",
      "target": 34963
    },
    {
      "buffer": 0,
      "byteLength": 368288,
      "byteOffset": 817536,
      "byteStride": 8,
      "name": "floatBufferViews",
      "target": 34962
    },
    {
      "buffer": 0,
      "byteLength": 1104864,
      "byteOffset": 1185824,
      "byteStride": 12,
      "name": "floatBufferViews",
      "target": 34962
    },
    {
      "buffer": 0,
      "byteLength": 736512,
      "byteOffset": 2290688,
      "byteStride": 16,
      "name": "floatBufferViews",
      "target": 34962
    }
  ],
  "buffers": [
    {
      "byteLength": 3027200,
      "uri": "scene.bin"
    }
  ],
  "images": [
    {
      "uri": "textures/laptop_MAT_baseColor.jpg"
    },
    {
      "uri": "textures/laptop_MAT_metallicRoughness.jpg"
    },
    {
      "uri": "textures/laptop_MAT_normal.jpg"
    },
    {
      "uri": "textures/screen_MAT_baseColor.jpg"
    }
  ],
  "materials": [
    {
      "doubleSided": true,
      "name": "laptop_MAT",
      "normalTexture": {
        "index": 2
      },
      "pbrMetallicRoughness": {
        "baseColorTexture": {
          "index": 0
        },
        "metallicRoughnessTexture": {
          "index": 1
        }
      }
    },
    {
      "doubleSided": true,
      "emissiveFactor": [
        1.0,
        1.0,
        1.0
      ],
      "emissiveTexture": {
        "index": 3
      },
      "name": "screen_MAT",
      "pbrMetallicRoughness": {
        "baseColorTexture": {
          "index": 3
        },
        "metallicFactor": 0.0,
        "roughnessFactor": 0.0
      }
    }
  ],
  "meshes": [
    {
      "name": "laptop_base_GEO_laptop_MAT_0",
      "primitives": [
        {
          "attributes": {
            "NORMAL": 1,
            "POSITION": 0,
            "TANGENT": 2,
            "TEXCOORD_0": 3
          },
          "indices": 4,
          "material": 0,
          "mode": 4
        }
      ]
    },
    {
      "name": "screen_GEO_GEO_laptop_MAT_0",
      "primitives": [
        {
          "attributes": {
            "NORMAL": 6,
            "POSITION": 5,
            "TANGENT": 7,
            "TEXCOORD_0": 8
          },
          "indices": 9,
          "material": 0,
          "mode": 4
        }
      ]
    },
    {
      "name": "screen_GEO_GEO_screen_MAT_0",
      "primitives": [
        {
          "attributes": {
            "NORMAL": 11,
            "POSITION": 10,
            "TEXCOORD_0": 12
          },
          "indices": 13,
          "material": 1,
          "mode": 4
        }
      ]
    }
  ],
  "nodes": [
    {
      "children": [
        1
      ],
      "matrix": [
        1.0,
        0.0,
        0.0,
        0.0,
        0.0,
        2.220446049250313e-16,
        -1.0,
        0.0,
        0.0,
        1.0,
        2.220446049250313e-16,
        0.0,
        0.0,
        0.0,
        0.0,
        1.0
      ],
      "name": "Sketchfab_model"
    },
    {
      "children": [
        2
      ],
      "matrix": [
        0.0010000000474974513,
        0.0,
        0.0,
        0.0,
        0.0,
        0.0,
        0.0010000000474974513,
        0.0,
        0.0,
        -0.0010000000474974513,
        0.0,
        0.0,
        0.0,
        0.0,
        0.0,
        1.0
      ],
      "name": "839203bfac9d4cf599b4f34ef4c2c273.fbx"
    },
    {
      "children": [
        3
      ],
      "name": "RootNode"
    },
    {
      "children": [
        4,
        5
      ],
      "matrix": [
        10.0,
        0.0,
        0.0,
        0.0,
        0.0,
        10.0,
        0.0,
        0.0,
        0.0,
        0.0,
        10.0,
        0.0,
        0.0,
        0.0,
        0.0,
        1.0
      ],
      "name": "laptop_base_GEO"
    },
    {
      "mesh": 0,
      "name": "laptop_base_GEO_laptop_MAT_0"
    },
    {
      "children": [
        6,
        7
      ],
      "name": "screen_GEO_GEO"
    },
    {
      "mesh": 1,
      "name": "screen_GEO_GEO_laptop_MAT_0"
    },
    {
      "mesh": 2,
      "name": "screen_GEO_GEO_screen_MAT_0"
    }
  ],
  "samplers": [
    {
      "magFilter": 9729,
      "minFilter": 9987,
      "wrapS": 10497,
      "wrapT": 10497
    }
  ],
  "scene": 0,
  "scenes": [
    {
      "name": "Sketchfab_Scene",
      "nodes": [
        0
      ]
    }
  ],
  "textures": [
    {
      "sampler": 0,
      "source": 0
    },
    {
      "sampler": 0,
      "source": 1
    },
    {
      "sampler": 0,
      "source": 2
    },
    {
      "sampler": 0,
      "source": 3
    }
  ]
}
